<svg xmlns="http://www.w3.org/2000/svg" fill="none" viewBox="0 0 50 51" id="Stackoverflow">
  <path fill="#595bd4" fill-rule="evenodd" d="M10.417 30.032c.863 0 1.562.7 1.562 1.563v10.937h26.042V31.595a1.562 1.562 0 1 1 3.125 0v12.5c0 .862-.7 1.562-1.563 1.562H10.417c-.863 0-1.563-.7-1.563-1.562v-12.5c0-.863.7-1.563 1.563-1.563" clip-rule="evenodd" class="color000000 svgShape"></path>
  <path fill="#595bd4" fill-rule="evenodd" d="M15.104 35.761c0-.863.7-1.562 1.563-1.562h16.666a1.563 1.563 0 0 1 0 3.125H16.667c-.863 0-1.563-.7-1.563-1.563M15.32 27.103a1.563 1.563 0 0 1 1.854-1.204l16.302 3.466a1.563 1.563 0 0 1-.65 3.056l-16.302-3.465a1.563 1.563 0 0 1-1.204-1.853M18.297 18.434a1.56 1.56 0 0 1 2.076-.756l15.106 7.044a1.562 1.562 0 0 1-1.321 2.832l-15.105-7.043a1.563 1.563 0 0 1-.756-2.077M23.896 10.798a1.563 1.563 0 0 1 2.2-.192l12.768 10.713a1.563 1.563 0 0 1-2.008 2.394L24.088 13a1.563 1.563 0 0 1-.192-2.202M30.514 4.322a1.563 1.563 0 0 1 2.193.269l10.261 13.133a1.563 1.563 0 0 1-2.462 1.924L30.245 6.515a1.563 1.563 0 0 1 .27-2.193" clip-rule="evenodd" class="color000000 svgShape"></path>
</svg>
